<?xml version="1.0" standalone="no"?><!DOCTYPE svg PUBLIC "-//W3C//DTD SVG 1.1//EN" "http://www.w3.org/Graphics/SVG/1.1/DTD/svg11.dtd"><svg t="1752479520252" class="icon" viewBox="0 0 1024 1024" version="1.1" xmlns="http://www.w3.org/2000/svg" p-id="24475" xmlns:xlink="http://www.w3.org/1999/xlink" width="200" height="200"><path d="M546.133333 477.866667h234.666667c17.066667 0 34.133333 12.8 34.133333 34.133333s-12.8 34.133333-34.133333 34.133333h-234.666667v234.666667c0 17.066667-12.8 34.133333-34.133333 34.133333s-34.133333-12.8-34.133333-34.133333v-234.666667h-234.666667c-17.066667 0-34.133333-12.8-34.133333-34.133333s12.8-34.133333 34.133333-34.133333h234.666667v-234.666667c0-17.066667 12.8-34.133333 34.133333-34.133333s34.133333 12.8 34.133333 34.133333v234.666667z" fill="#768893" p-id="24476"></path><path d="M546.133333 477.866667h234.666667c17.066667 0 34.133333 12.8 34.133333 34.133333s-12.8 34.133333-34.133333 34.133333h-234.666667v234.666667c0 17.066667-12.8 34.133333-34.133333 34.133333s-34.133333-12.8-34.133333-34.133333v-234.666667h-234.666667c-17.066667 0-34.133333-12.8-34.133333-34.133333s12.8-34.133333 34.133333-34.133333h234.666667v-234.666667c0-17.066667 12.8-34.133333 34.133333-34.133333s34.133333 12.8 34.133333 34.133333v234.666667z" fill="#768893" p-id="24477"></path></svg>