<?xml version="1.0" standalone="no"?><!DOCTYPE svg PUBLIC "-//W3C//DTD SVG 1.1//EN" "http://www.w3.org/Graphics/SVG/1.1/DTD/svg11.dtd"><svg t="1753246632955" class="icon" viewBox="0 0 1024 1024" version="1.1" xmlns="http://www.w3.org/2000/svg" p-id="4515" xmlns:xlink="http://www.w3.org/1999/xlink" width="200" height="200"><path d="M876.138515 871.935637A510.421121 510.421121 0 0 1 512 1023.999573a510.421121 510.421121 0 0 1-363.861182-151.786603c0.362667-0.96 0.768-1.919999 1.194666-2.879999 53.845311-113.343953 135.999943-135.999943 135.999944-135.999943H330.666742a90.666629 90.666629 0 0 0 90.666629-90.666629v-30.101321c-18.005326-21.589324-32.255987-46.357314-40.853316-73.130636-1.813333-5.439998-2.751999-11.733328-7.743997-15.167994-19.711992-16.191993-25.109323-46.506647-12.842661-68.735971 2.069332-4.479998 6.677331-8.170663 6.058664-13.589328 0.085333-27.114655-0.213333-54.229311 0.170666-81.279966 1.066666-25.194656 7.359997-50.773312 21.695991-71.80797 16.213327-24.213323 42.410649-40.55465 70.314638-47.594647 32.191987-8.191997 66.175972-8.511996 98.687959-2.303999 25.706656 4.906665 50.645312 16.319993 68.799971 35.498652 22.485324 23.765323 31.63732 57.10931 32.362653 89.173296 0.149333 26.581322 0.021333 53.205311 0.021333 79.786634-0.170667 3.925332 3.007999 6.677331 4.799998 9.834662 13.013328 20.863991 9.599996 50.133312-7.76533 67.498639-3.221332 3.455999-8.063997 5.930664-8.981329 10.965328-8.959996 29.781321-23.338657 57.983976-43.391982 81.834633v29.119988a90.666629 90.666629 0 0 0 90.666629 90.666629h45.333314S828.522535 772.202345 874.666516 869.332971l1.471999 2.602666z" fill="#16AA68" p-id="4516"></path></svg>