<?xml version="1.0" standalone="no"?><!DOCTYPE svg PUBLIC "-//W3C//DTD SVG 1.1//EN" "http://www.w3.org/Graphics/SVG/1.1/DTD/svg11.dtd"><svg t="1752474781968" class="icon" viewBox="0 0 1024 1024" version="1.1" xmlns="http://www.w3.org/2000/svg" p-id="940" xmlns:xlink="http://www.w3.org/1999/xlink" width="200" height="200"><path d="M562.38 545.03c-85.27 0-154.64-69.37-154.64-154.64 0-85.27 69.37-154.64 154.64-154.64s154.64 69.37 154.64 154.64c0 85.27-69.37 154.64-154.64 154.64z m0-269.28c-63.21 0-114.64 51.43-114.64 114.64s51.43 114.64 114.64 114.64 114.64-51.43 114.64-114.64-51.43-114.64-114.64-114.64zM805.61 788.26c-11.05 0-20-8.95-20-20 0-38.61-10.01-76.65-28.94-110.01-18.37-32.37-44.79-59.9-76.41-79.6-9.38-5.84-12.24-18.18-6.4-27.55 5.84-9.37 18.18-12.24 27.55-6.4 37.25 23.22 68.39 55.65 90.04 93.8 22.34 39.37 34.15 84.23 34.15 129.75 0.01 11.06-8.94 20.01-19.99 20.01z" p-id="941"></path><path d="M319.15 788.26c-11.05 0-20-8.95-20-20 0-70.31 27.38-136.41 77.1-186.13s115.82-77.1 186.13-77.1c11.05 0 20 8.95 20 20s-8.95 20-20 20c-59.63 0-115.68 23.22-157.85 65.38s-65.38 98.22-65.38 157.85c0 11.05-8.95 20-20 20z" p-id="942"></path><path d="M398.43 510.44c-65.98 0-119.66-53.68-119.66-119.66 0-65.98 53.68-119.66 119.66-119.66 11.05 0 20 8.95 20 20s-8.95 20-20 20c-43.92 0-79.66 35.74-79.66 79.66 0 43.92 35.74 79.66 79.66 79.66 11.05 0 20 8.95 20 20s-8.95 20-20 20z" p-id="943"></path><path d="M218.39 690.48c-11.05 0-20-8.95-20-20 0-110.3 89.74-200.04 200.04-200.04 11.05 0 20 8.95 20 20s-8.95 20-20 20c-88.25 0-160.04 71.79-160.04 160.04 0 11.05-8.95 20-20 20z" p-id="944"></path></svg>