<?xml version="1.0" standalone="no"?><!DOCTYPE svg PUBLIC "-//W3C//DTD SVG 1.1//EN" "http://www.w3.org/Graphics/SVG/1.1/DTD/svg11.dtd"><svg t="1752476950384" class="icon" viewBox="0 0 1024 1024" version="1.1" xmlns="http://www.w3.org/2000/svg" p-id="12757" xmlns:xlink="http://www.w3.org/1999/xlink" width="200" height="200"><path d="M653.25056 750.39744c-1.60256 7.81312-9.0624 11.99104-16.5632 9.27232l-111.62112-40.46336c-7.50592-2.71872-19.84-2.88256-27.41248-0.3584l-112.64512 37.51424c-7.57248 2.51904-14.91456-1.8432-16.31744-9.70752l-20.9152-117.36064c-1.39776-7.8592-7.41888-18.64192-13.37344-23.95648l-88.71424-79.17568c-5.95456-5.31456-5.84192-13.88544 0.25088-19.04128l90.74688-76.81536c6.0928-5.15584 12.3904-15.77472 13.99808-23.59296l23.97696-116.77184c1.60768-7.81824 9.0624-11.99104 16.5632-9.27232l111.616 40.46336c7.50592 2.71872 19.84 2.88256 27.41248 0.3584l112.65024-37.51936c7.57248-2.51904 14.91456 1.8432 16.31744 9.7024l20.92032 117.376c1.39776 7.8592 7.41376 18.6368 13.37344 23.95136l88.69888 79.17568c5.95968 5.31456 5.84704 13.88544-0.24576 19.0464l-90.74176 76.81024c-6.08768 5.15584-12.3904 15.7696-13.99296 23.58784l-23.98208 116.77696zM497.9712 693.53984c7.57248-2.51904 13.97248-4.51072 14.21312-4.41856l14.09024 5.10464 92.63104 33.57696c7.50592 2.71872 14.96064-1.44896 16.5632-9.27232l20.07552-97.83296c1.60256-7.81312 3.08224-14.35136 3.2768-14.5152l11.43808-9.68192 75.32032-63.75936c6.08768-5.16096 6.20544-13.73184 0.25088-19.04128l-74.33216-66.35008c-5.95456-5.31456-11.97056-16.09728-13.36832-23.95136l-17.52576-98.3296c-1.39776-7.8592-8.73984-12.22656-16.31744-9.7024l-94.3616 31.42144c-7.57248 2.52416-19.91168 2.36032-27.41248-0.3584l-93.50656-33.8944c-7.50592-2.71872-14.95552 1.45408-16.5632 9.27232L372.35712 419.6352c-1.60768 7.81824-7.90528 18.43712-13.99808 23.59296L282.33216 507.5968c-6.0928 5.15584-6.20544 13.72672-0.25088 19.0464l74.33216 66.34496c5.95456 5.31456 11.97056 16.09728 13.37344 23.95648l17.52064 98.32448c1.39776 7.8592 8.73984 12.22656 16.31744 9.70752l94.34624-31.4368z" p-id="12758"></path><path d="M848.76288 725.75488c2.24256 7.65952-2.39616 14.83264-10.30144 15.94368l-182.31808 25.55904c-7.90528 1.11104-18.88256 6.73792-24.3968 12.51328l-127.13984 133.1712c-5.50912 5.77536-14.04416 5.35552-18.95936-0.93696l-113.80736-145.60768c-4.9152-6.29248-15.27808-12.99456-23.02976-14.90432l-179.01056-44.09344c-7.75168-1.90976-11.66336-9.52832-8.69376-16.94208l68.59264-171.11552c2.9696-7.40864 3.56352-19.7376 1.32608-27.40224l-51.88096-177.3568c-2.24256-7.66464 2.39104-14.83776 10.29632-15.94368l182.31808-25.5744c7.90528-1.10592 18.88256-6.73792 24.3968-12.51328l127.14496-133.16608c5.50912-5.77536 14.03904-5.3504 18.95936 0.93696l113.81248 145.60768c4.92032 6.29248 15.27808 12.99968 23.02976 14.90944l179.00544 44.1088c7.75168 1.90976 11.65824 9.53344 8.68864 16.9472L798.208 520.98048c-2.9696 7.40864-3.56352 19.7376-1.32608 27.40224l51.88096 177.37216z m-230.23104 28.3136c5.50912-5.77536 10.33728-10.54208 10.7264-10.58816l15.0784-2.10944 159.13984-22.3232c7.90528-1.11104 12.53888-8.28416 10.30144-15.94368l-45.69088-156.15488c-2.24256-7.66464-3.95264-14.22336-3.8144-14.58176l5.66272-14.12096 59.86816-149.38624c2.9696-7.40864-0.94208-15.03744-8.68864-16.9472l-157.63968-38.85056c-7.75168-1.90976-18.10944-8.61696-23.02464-14.90944l-100.1984-128.19968c-4.92032-6.29248-13.45024-6.71232-18.95936-0.93696L409.35936 286.24896c-5.51424 5.77536-16.49152 11.40736-24.3968 12.51328L224.44032 321.28c-7.90528 1.10592-12.53888 8.28416-10.29632 15.94368l45.68576 156.16c2.24256 7.65952 1.64352 19.98848-1.32608 27.40224l-60.40064 150.67648c-2.9696 7.40864 0.94208 15.03744 8.69376 16.9472l157.64992 38.85056c7.75168 1.90976 18.11456 8.62208 23.02976 14.90944l100.19328 128.19968c4.9152 6.29248 13.44512 6.71232 18.95936 0.93696l111.90272-117.23776z" p-id="12759"></path></svg>