<?xml version="1.0" standalone="no"?><!DOCTYPE svg PUBLIC "-//W3C//DTD SVG 1.1//EN" "http://www.w3.org/Graphics/SVG/1.1/DTD/svg11.dtd"><svg t="1752475073405" class="icon" viewBox="0 0 1024 1024" version="1.1" xmlns="http://www.w3.org/2000/svg" p-id="1657" xmlns:xlink="http://www.w3.org/1999/xlink" width="200" height="200"><path d="M64 768V256a64 64 0 0 1 64-64h768a64 64 0 0 1 64 64v512a64 64 0 0 1-64 64H128a64 64 0 0 1-64-64z m64 0h768V256H128v512z" fill="#263140" p-id="1658"></path><path d="M758.656 297.344a32 32 0 0 1 0 45.312L536.896 564.352q-11.264 11.264-27.2 11.264-15.872 0-27.136-11.264L260.8 342.656a32 32 0 0 1 45.248-45.312l203.648 203.648 203.648-203.648a32 32 0 0 1 45.312 0z" fill="#263140" p-id="1659"></path></svg>