<?xml version="1.0" standalone="no"?><!DOCTYPE svg PUBLIC "-//W3C//DTD SVG 1.1//EN" "http://www.w3.org/Graphics/SVG/1.1/DTD/svg11.dtd"><svg t="1753499744256" class="icon" viewBox="0 0 1024 1024" version="1.1" xmlns="http://www.w3.org/2000/svg" p-id="4411" xmlns:xlink="http://www.w3.org/1999/xlink" width="200" height="200"><path d="M752.64 163.84H117.76C51.2 163.84 0 215.04 0 281.6v414.72C0 762.88 51.2 819.2 117.76 819.2h97.28v163.84c0 20.48 25.6 35.84 46.08 20.48L512 819.2h245.76c66.56 0 117.76-51.2 117.76-117.76V281.6c0-66.56-56.32-117.76-122.88-117.76zM184.32 558.08c-35.84 0-61.44-30.72-61.44-61.44S153.6 435.2 184.32 435.2s61.44 30.72 61.44 61.44-25.6 61.44-61.44 61.44z m256 0c-35.84 0-61.44-30.72-61.44-61.44S409.6 435.2 440.32 435.2c35.84 0 61.44 30.72 61.44 61.44s-25.6 61.44-61.44 61.44z m256 0c-35.84 0-61.44-30.72-61.44-61.44s30.72-61.44 61.44-61.44c35.84 0 61.44 30.72 61.44 61.44s-25.6 61.44-61.44 61.44z" fill="#08c160" p-id="4412"></path><path d="M788.48 122.88c66.56 0 122.88 56.32 122.88 122.88v424.96c61.44-5.12 107.52-56.32 107.52-117.76V174.08c0-87.04-71.68-158.72-158.72-158.72H266.24C204.8 15.36 153.6 61.44 148.48 122.88h640z" fill="#08c160" p-id="4413"></path></svg>