<?xml version="1.0" standalone="no"?><!DOCTYPE svg PUBLIC "-//W3C//DTD SVG 1.1//EN" "http://www.w3.org/Graphics/SVG/1.1/DTD/svg11.dtd"><svg t="1752488591434" class="icon" viewBox="0 0 1024 1024" version="1.1" xmlns="http://www.w3.org/2000/svg" p-id="28911" xmlns:xlink="http://www.w3.org/1999/xlink" width="200" height="200"><path d="M102.4 76.8h233.7792a76.8 76.8 0 0 1 53.248 21.504l129.5872 124.928a25.6 25.6 0 0 0 17.7664 7.168H921.6A76.8 76.8 0 0 1 998.4 307.2v563.2a76.8 76.8 0 0 1-76.8 76.8H102.4A76.8 76.8 0 0 1 25.6 870.4V153.6A76.8 76.8 0 0 1 102.4 76.8z m0 51.2a25.6 25.6 0 0 0-25.6 25.6v716.8a25.6 25.6 0 0 0 25.6 25.6h819.2a25.6 25.6 0 0 0 25.6-25.6V307.2a25.6 25.6 0 0 0-25.6-25.6h-384.8192a76.8 76.8 0 0 1-53.248-21.504L353.8944 135.168a25.6 25.6 0 0 0-17.7664-7.168H102.4z" fill="#6A6A73" p-id="28912"></path><path d="M51.2 409.6h921.6v51.2H51.2z" fill="#6A6A73" p-id="28913"></path></svg>