<?xml version="1.0" standalone="no"?><!DOCTYPE svg PUBLIC "-//W3C//DTD SVG 1.1//EN" "http://www.w3.org/Graphics/SVG/1.1/DTD/svg11.dtd"><svg t="1752474997661" class="icon" viewBox="0 0 1024 1024" version="1.1" xmlns="http://www.w3.org/2000/svg" p-id="1503" xmlns:xlink="http://www.w3.org/1999/xlink" width="200" height="200"><path d="M479.744 941.184l-320-186.624A64 64 0 0 1 128 699.264V324.736a64 64 0 0 1 31.744-55.232l320-186.688a64 64 0 0 1 64.512 0l320 186.688a64 64 0 0 1 31.744 55.232v374.528a64 64 0 0 1-31.744 55.296l-320 186.624a64 64 0 0 1-64.512 0zM512 885.888l320-186.624V324.736L512 138.112 192 324.736v374.528l320 186.624z m143.616-506.112l-148.224 106.24L354.56 379.52a32 32 0 1 0-36.544 52.48l161.28 112.512a26.368 26.368 0 0 0-1.472 8.704v182.912l0.256 3.84c1.984 13.632 14.464 24.192 29.568 24.192 16.512 0 29.888-12.544 29.888-28.032V553.216l-0.256-3.84a26.368 26.368 0 0 0-1.28-5.12l156.8-112.512a32 32 0 1 0-37.248-51.968z" fill="#263140" p-id="1504"></path></svg>