<?xml version="1.0" standalone="no"?><!DOCTYPE svg PUBLIC "-//W3C//DTD SVG 1.1//EN" "http://www.w3.org/Graphics/SVG/1.1/DTD/svg11.dtd"><svg t="1753500457004" class="icon" viewBox="0 0 1024 1024" version="1.1" xmlns="http://www.w3.org/2000/svg" p-id="5580" xmlns:xlink="http://www.w3.org/1999/xlink" width="200" height="200"><path d="M512 0a512 512 0 1 0 0 1024 512 512 0 0 0 0-1024zM307.473067 118.3744c22.3232-11.6736 45.738667-21.435733 69.768533-29.149867-25.1904 36.864-46.8992 83.899733-63.8976 138.24C287.9488 211.217067 273.066667 191.761067 273.066667 170.666667c0-19.114667 12.970667-36.864 34.4064-52.224zM208.145067 189.2352c7.918933 40.072533 39.3216 76.049067 88.337066 102.946133-12.6976 56.9344-20.48 119.466667-22.596266 185.7536H69.973333A442.094933 442.094933 0 0 1 208.213333 189.2352h-0.068266z m0 645.666133a442.094933 442.094933 0 0 1-138.171734-288.631466H273.749333c2.048 66.1504 9.966933 128.750933 22.528 185.685333-48.878933 26.760533-80.2816 62.805333-88.200533 102.946133z m99.328 70.724267C286.037333 890.197333 273.066667 872.448 273.066667 853.333333c0-21.162667 14.882133-40.618667 40.277333-56.866133 17.066667 54.408533 38.7072 101.307733 63.8976 138.24a438.818133 438.818133 0 0 1-69.768533-29.149867zM477.866667 946.858667c-42.871467-22.528-79.803733-87.381333-104.448-176.605867a453.905067 453.905067 0 0 1 104.448-17.749333v194.3552z m0-262.144a484.898133 484.898133 0 0 0-119.125334 21.572266 1030.826667 1030.826667 0 0 1-16.725333-160.085333H477.866667v138.4448zM477.866667 477.866667H342.016c1.365333-53.725867 7.031467-107.246933 16.725333-160.085334A490.154667 490.154667 0 0 0 477.866667 339.5584v138.376533zM477.866667 271.701333a461.346133 461.346133 0 0 1-104.448-17.749333C398.062933 164.522667 434.9952 99.874133 477.866667 77.2096V271.701333z m337.92-82.466133A441.685333 441.685333 0 0 1 953.9584 477.866667h-203.844267a1005.1584 1005.1584 0 0 0-22.664533-185.685334c49.015467-26.8288 80.418133-62.805333 88.2688-102.946133h0.068267z m-99.191467-70.8608c21.367467 15.36 34.4064 33.041067 34.4064 52.224 0 21.162667-14.882133 40.5504-40.277333 56.797867-17.066667-54.340267-38.7072-101.307733-64.034134-138.24 24.1664 7.645867 47.5136 17.476267 69.905067 29.218133zM546.2016 77.141333c42.939733 22.7328 79.872 87.381333 104.448 176.605867a461.346133 461.346133 0 0 1-104.448 17.749333V77.141333z m0 262.3488a490.769067 490.769067 0 0 0 119.125333-21.7088c9.216 48.9472 15.018667 102.877867 16.725334 159.9488H546.133333V339.421867z m0 206.574934h135.850667c-1.365333 53.725867-6.9632 107.3152-16.725334 160.1536a484.283733 484.283733 0 0 0-119.125333-21.640534V546.133333z m0 400.657066V752.298667a455.202133 455.202133 0 0 1 104.448 17.749333c-24.576 89.361067-61.44 154.146133-104.448 176.674133z m170.3936-41.233066c-22.391467 11.741867-45.738667 21.504-69.768533 29.354666 25.1904-37.0688 46.967467-83.968 64.034133-138.376533 25.326933 16.247467 40.209067 35.771733 40.209067 56.866133 0 19.114667-13.1072 36.795733-34.474667 52.155734z m99.328-70.724267c-7.918933-40.072533-39.389867-76.1856-88.337067-102.946133A1002.837333 1002.837333 0 0 0 750.250667 546.133333h203.844266a441.685333 441.685333 0 0 1-138.103466 288.699734z" fill="#08c160" p-id="5581"></path></svg>